/* XPM */
static char *close_xpm[] = {
/* columns rows colors chars-per-pixel */
"22 20 119 2 ",
"   c #020202",
".  c gray8",
"X  c #1E1E1E",
"o  c #202121",
"O  c #282828",
"+  c gray16",
"@  c gray17",
"#  c gray18",
"$  c #2F2F2F",
"%  c #323232",
"&  c gray21",
"*  c #3A3835",
"=  c #393939",
"-  c #3E3E3E",
";  c #3F3F3F",
":  c #003D5A",
">  c #003C5B",
",  c gray25",
"<  c gray26",
"1  c #444444",
"2  c gray27",
"3  c #464646",
"4  c #484848",
"5  c gray31",
"6  c #585858",
"7  c #606060",
"8  c #686868",
"9  c #6A6969",
"0  c #6C6B6B",
"q  c #6E6D6D",
"w  c #727272",
"e  c gray46",
"r  c #0B5482",
"t  c #0E5C8D",
"y  c #0E5E91",
"u  c #0F6596",
"i  c #0E6597",
"p  c #0F6698",
"a  c #006B9E",
"s  c #276C8C",
"d  c #296C8E",
"f  c #286C8F",
"g  c #276892",
"h  c #106CA1",
"j  c #116FA0",
"k  c #0770A1",
"l  c #0873A5",
"z  c #1172A4",
"x  c #1175A4",
"c  c #127CAD",
"v  c #127FB1",
"b  c #0784B2",
"n  c #0787B6",
"m  c #1380B2",
"M  c #169ACB",
"N  c #38A2C5",
"B  c #3AA3C5",
"V  c #19AFEE",
"C  c #3CB9ED",
"Z  c #57A1C0",
"A  c #58AECD",
"S  c #56B0CD",
"D  c #5DB1D0",
"F  c #70B8D3",
"G  c #72B9D4",
"H  c #76BBD5",
"J  c #77BCD6",
"K  c #79BFD6",
"L  c #9D9D9D",
"P  c #81A0B0",
"I  c #88A6B5",
"U  c #8AA9B9",
"Y  c #A4A4A4",
"T  c #A7A7A7",
"R  c #AAAAAA",
"E  c #AEAEAE",
"W  c #AFAFAF",
"Q  c gray69",
"!  c gray71",
"~  c #B6B6B6",
"^  c #BBBBBB",
"/  c gray75",
"(  c #C1BEBE",
")  c #81C2D8",
"_  c #82C3D9",
"`  c #85C4D9",
"'  c #91C9DB",
"]  c #C0C0C0",
"[  c gray77",
"{  c #C5C5C5",
"}  c #C6C6C6",
"|  c #CBC9C8",
" . c #CACACA",
".. c #CBCBCB",
"X. c gray80",
"o. c #CECECE",
"O. c gray82",
"+. c #D5D5D5",
"@. c gray84",
"#. c #D7D7D7",
"$. c #DBD7D6",
"%. c gray86",
"&. c gainsboro",
"*. c gray87",
"=. c #DFDFDF",
"-. c #C1E1ED",
";. c #D3EDF6",
":. c #E1E1E1",
">. c #E4E4E4",
",. c #E6E6E6",
"<. c #E9E4E4",
"1. c #E9E9E9",
"2. c #EAEAEA",
"3. c gray92",
"4. c #EEEEEE",
"5. c #F1F1F1",
"6. c #F6F6F6",
"7. c gray99",
"8. c None",
/* pixels */
"8.8.8.8.8.8.8.8.8.8.8.8.8.8.8.8.8.8.8.8.8.8.",
"8.8.8.8.8.8.8.8.8.8.8.8.8.8.8.8.8.8.8.8.8.8.",
"8.8.8.8.  4 8.8.8.8.8.8.8.8.8.8.8.8.8.8.8.8.",
"8.8.8.. ..1.4 4 $ 8.8.8.8.8.8.8.8.8.8.8.8.8.",
"8.8.- a : e Y ..1.4   4 w   8.8.8.8.8.8.8.8.",
"8.8.O -.;.K a : e Y ..>.1.1.  8.8.8.8.8.8.8.",
"8.8.o C B J -.;._ l > e Y ..1.3 8.8.8.8.8.8.",
"8.8.X V n N D H ) -.;.` k : e 5 8.8.8.8.8.8.",
"8.8.X M h c b n N S G ' -.;.K ; 8.8.8.8.8.8.",
"8.8.@ m r y i j v n n N A F -.; 8.8.8.8.8.8.",
"8.8.2 7.<.U d r t p x c n n F , 8.8.8.8.8.8.",
"8.8.1 6.5.3.2.$.P f r y u z Z , 8.8.8.8.8.8.",
"8.8.< 4.2.,.:.&.+.#.| I s r g , 8.8.8.8.8.8.",
"8.8.& [ =.*.%.@.O.X.{ / { ( q 2 8.8.8.8.8.8.",
"8.8.8.  & 8 ] o. .} ] ^ ~ E q 3 8.8.8.8.8.8.",
"8.8.8.8.8.8.  % 7 W ^ ! Q R 0 2 8.8.8.8.8.8.",
"8.8.8.8.8.8.8.8.8.  # 6 L T 9 = 8.8.8.8.8.8.",
"8.8.8.8.8.8.8.8.8.8.8.8.  + * 8.8.8.8.8.8.8.",
"8.8.8.8.8.8.8.8.8.8.8.8.8.8.8.8.8.8.8.8.8.8.",
"8.8.8.8.8.8.8.8.8.8.8.8.8.8.8.8.8.8.8.8.8.8."
};
