/* XPM */
static char *leaf[] = {
/* columns rows colors chars-per-pixel */
"22 20 85 1 ",
"  c gray19",
". c gray26",
"X c #585858",
"o c gray42",
"O c #6D6D6D",
"+ c gray44",
"@ c #BC9E73",
"# c #BDA076",
"$ c #BCA178",
"% c #BCA37F",
"& c #BEA57F",
"* c #8F8984",
"= c #898989",
"- c gray60",
"; c #BCA685",
": c #BFAA88",
"> c #BCA88A",
", c #BCAB90",
"< c #BCAE97",
"1 c #BEB6AF",
"2 c #BCB7B1",
"3 c #C0AF91",
"4 c #C2B39A",
"5 c #C3B8A3",
"6 c #C4BDAC",
"7 c #C6C1B6",
"8 c #E5CCA7",
"9 c #E7D1B0",
"0 c #E9D6B8",
"q c #E9D6B9",
"w c #E9D6BA",
"e c #ECDABF",
"r c #CECECE",
"t c gray87",
"y c #DFDFDF",
"u c #ECDAC0",
"i c #ECDBC2",
"p c #ECDCC1",
"a c #EEDEC8",
"s c #EEDFC8",
"d c #ECDFCA",
"f c #EEE0C9",
"g c #EEE0CA",
"h c #ECE2D4",
"j c #E7E0D9",
"k c #E2E0DE",
"l c #EEE7DC",
"z c #F0E4D0",
"x c #F0E4D1",
"c c #F0E4D2",
"v c #F1E4D2",
"b c #F1E6D4",
"n c #F2E8D8",
"m c #F2E8D9",
"M c #F2E9DA",
"N c #F3EADB",
"B c #F3EADC",
"V c #F3EBDC",
"C c #EAEAEA",
"Z c #F3EDE3",
"A c #F4EDE1",
"S c #F4EDE2",
"D c #F5EEE2",
"F c #F5EEE3",
"G c #F5EEE4",
"H c #F5EFE5",
"J c #F7F1E9",
"K c #F4F0EC",
"L c #F8F2EA",
"P c #F8F3EB",
"I c #F8F4EC",
"U c #F8F4ED",
"Y c #F6F5F5",
"T c #FAF6F2",
"R c #FAF8F3",
"E c #FAF8F4",
"W c #FBF8F5",
"Q c #FBF9F6",
"! c #FCFCFB",
"~ c gray99",
"^ c #FDFDFC",
"/ c #FEFEFD",
"( c #FEFEFE",
") c white",
"_ c None",
/* pixels */
"______________________",
"______________________",
"____XXXXXXXXX_________",
"____Xttttt2X-X________",
"____Xt))))CO)-X_______",
"____Xt))))~+r)- ______",
"____Xt)))))=+o. ______",
"____Xt)))))Yk2* ______",
"____Xt)))))QKj1 ______",
"____Xy)))(WUZl< ______",
"____Xt))/EIHVh< ______",
"____Xt)^EPGBbd, ______",
"____Xt!RPFNvgi> ______",
"____XtTLDMcfpw; ______",
"____XtJSmxsuq9% ______",
"____XtAnzae098$ ______",
"____X776543:&#@ ______",
"____X           ______",
"______________________",
"______________________"
};
