/* XPM */
static char *open_xpm[] = {
/* columns rows colors chars-per-pixel */
"22 20 99 2 ",
"   c black",
".  c #020202",
"X  c gray8",
"o  c gray16",
"O  c gray18",
"+  c #2F2F2F",
"@  c #323232",
"#  c gray21",
"$  c #3C3A37",
"%  c #393939",
"&  c #3F3F3F",
"*  c #003450",
"=  c #003857",
"-  c #003858",
";  c #003A5B",
":  c #003B5C",
">  c gray26",
",  c #464646",
"<  c #484848",
"1  c #505050",
"2  c #585858",
"3  c #625C52",
"4  c #72644F",
"5  c #606060",
"6  c #686868",
"7  c #727272",
"8  c #807055",
"9  c #88785B",
"0  c #8A795C",
"q  c #837E78",
"w  c #8A8173",
"e  c #868078",
"r  c #87837E",
"t  c #928A7B",
"y  c #948B7B",
"u  c #155F8F",
"i  c #05699A",
"p  c #176191",
"a  c #186292",
"s  c #1A6B9B",
"d  c #306E8E",
"f  c #327192",
"g  c #1D7CAA",
"h  c #007CCC",
"j  c #1384AE",
"k  c #00A9E7",
"l  c #38B8E7",
"z  c #5FABC8",
"x  c #74B6CF",
"c  c #55C2EA",
"v  c #948C82",
"b  c #9D9D9D",
"n  c #A09F9B",
"m  c #8EAAB9",
"M  c #A6A6A2",
"N  c #A7A7A7",
"B  c #AAAAAA",
"V  c #AFAFAF",
"C  c #B2B0AD",
"Z  c gray69",
"A  c gray71",
"S  c #BBBBBB",
"D  c #CCB389",
"F  c #D7C19F",
"G  c #C3C1BD",
"H  c #C3C1BE",
"J  c #E3D1B8",
"K  c #9CCCE0",
"L  c #96D9F5",
"P  c #C0C0C0",
"I  c #C6C6C6",
"U  c #CBC9C5",
"Y  c #CACACA",
"T  c gray80",
"R  c #CECDCD",
"E  c #CECECE",
"W  c gray82",
"Q  c #D6D6D5",
"!  c gray84",
"~  c gray86",
"^  c gray87",
"/  c #DFDFDF",
"(  c #EDE0CD",
")  c #EAE0D1",
"_  c #CDE4ED",
"`  c #CAEBF7",
"'  c #E1E1E1",
"]  c #E1E2E3",
"[  c #E4E4E4",
"{  c #E9E9E9",
"}  c #EAEAEA",
"|  c #EEEEEE",
" . c #F3F0EC",
".. c #F5F2EF",
"X. c #F3F3F2",
"o. c #F6F6F6",
"O. c #FAF9F8",
"+. c white",
"@. c None",
/* pixels */
"@.@.@.@.@.@.@.@.@.@.@.@.@.@.@.@.@.@.@.@.@.@.",
"@.@.@.@.@.@.@.@.@.@.@.@.@.@.@.@.@.@.@.@.@.@.",
"@.@.@.@.. < @.@.@.@.@.@.@.@.@.@.@.@.@.@.@.@.",
"@.@.@.X [ { < < + @.@.@.@.@.@.@.@.@.@.@.@.@.",
"@.@.@.  +.X.| [ [ 1 . < 7 . @.@.@.@.@.@.@.@.",
"@.@.@.  +.q e [ O.O.| [ [ U . @.@.@.@.@.@.@.",
": i : : +.r  .t 0 y [ O.O.| U , @.@.@.@.@.@.",
": L ` K i : : ..) ( v 0 w [ [ & @.@.@.@.@.@.",
": l c x K _ K i : : ) J F 9 Q & @.@.@.@.@.@.",
"@.: k j j z x K _ K i : D 8 R & @.@.@.@.@.@.",
"@.: h p s s j j z x K _ : 4 G & @.@.@.@.@.@.",
"@.  o.o.m f a s s j j z : 3 H & @.@.@.@.@.@.",
"@.@.> | } ] ' m f u s s d * C & @.@.@.@.@.@.",
"@.@.# / / ^ ~ ! W T m g p = M & @.@.@.@.@.@.",
"@.@.@.. # 6 P E Y I P S S ; n & @.@.@.@.@.@.",
"@.@.@.@.@.@.. @ 5 V S A Z B - & @.@.@.@.@.@.",
"@.@.@.@.@.@.@.@.@.. O 2 b N : % @.@.@.@.@.@.",
"@.@.@.@.@.@.@.@.@.@.@.@.. o $ @.@.@.@.@.@.@.",
"@.@.@.@.@.@.@.@.@.@.@.@.@.@.@.@.@.@.@.@.@.@.",
"@.@.@.@.@.@.@.@.@.@.@.@.@.@.@.@.@.@.@.@.@.@."
};
